<svg width="16" height="16" viewBox="0 0 16 16" fill="none" xmlns="http://www.w3.org/2000/svg">
<g clip-path="url(#clip0_3012_19004)">
<path opacity="0.12" d="M8 1.3335C8.87548 1.3335 9.74239 1.50593 10.5512 1.84097C11.3601 2.176 12.095 2.66706 12.714 3.28612C13.3331 3.90518 13.8242 4.64011 14.1592 5.44894C14.4942 6.25778 14.6667 7.12469 14.6667 8.00017L8 8.00016L8 1.3335Z" fill="black"/>
<path d="M8.00065 1.3335C8.87613 1.3335 9.74304 1.50593 10.5519 1.84097C11.3607 2.176 12.0956 2.66706 12.7147 3.28612C13.3338 3.90518 13.8248 4.64011 14.1599 5.44894C14.4949 6.25778 14.6673 7.12469 14.6673 8.00017M8.00065 1.3335V8.00016M8.00065 1.3335C4.31875 1.3335 1.33398 4.31826 1.33398 8.00016C1.33398 11.6821 4.31875 14.6668 8.00065 14.6668C11.6825 14.6668 14.6673 11.6821 14.6673 8.00017M8.00065 1.3335C11.6825 1.3335 14.6673 4.31827 14.6673 8.00017M14.6673 8.00017L8.00065 8.00016M14.6673 8.00017C14.6673 9.05224 14.4183 10.0894 13.9407 11.0268C13.4631 11.9642 12.7704 12.7752 11.9192 13.3936L8.00065 8.00016" stroke="#D9EEFF" stroke-width="1.5" stroke-linecap="round" stroke-linejoin="round"/>
</g>
<defs>
<clipPath id="clip0_3012_19004">
<rect width="16" height="16" fill="white"/>
</clipPath>
</defs>
</svg>
